<svg id="Capa_1" enable-background="new 0 0 512 512" height="512" viewBox="0 0 512 512" width="512" xmlns="http://www.w3.org/2000/svg"><g><g fill="#57a4ff">
<path d="m318.17 235.27-4.62-30.46-2.27-14.99c-35.97-54.51-83.18-80.87-83.18-80.87s-51.44 86.22-23.99 188.64c14.98 55.91 38.92 108.16 63.83 142.41h81.29zm-32.817 83.76-58.174 35.725-9.247-23.517 62.068-43.238h25.513l.487 5.99v.01c.76 8.83 1.73 17.497 2.91 26z"/>
<path d="m444.36 206.79-68.36-22.79-62.45 20.81-5.9 1.97c1.03-5.81 2.24-11.463 3.63-16.96 18.28-72.7 64.72-117.82 64.72-117.82s53.73 52.21 68.36 134.79z"/>
<path d="m448 248c0 80.81-18.72 159.25-45.23 192h-53.54c-18.43-22.77-33.09-67.62-40.32-120-1.17-8.49-2.14-17.157-2.91-26v-.01c-1.31-15.04-2-30.47-2-45.99 0-2.71.047-5.393.14-8.05l14.03-4.68 57.83-19.27 71.86 23.95c.093 2.66.14 5.343.14 8.05z"/>
<circle cx="104" cy="80" r="32"/>
<path d="m318.17 235.27-14.03 4.68c.381-11.126 1.554-22.211 3.51-33.17l5.9-1.97z"/></g><g fill="#004fac">
<path d="m496 432h-78.09c9.98-16.95 18.58-40.13 25.2-68.14 8.43-35.65 12.89-75.72 12.89-115.86 0-2.64-.06-5.25-.14-7.84.01-.31-.01-.62-.03-.92-.414-11.066-1.58-22.092-3.49-33-.04-.572-.14-1.139-.3-1.69-6.71-36.87-20.78-67.26-33.14-88.36-18.33-31.32-36.56-49.18-37.32-49.93-3.107-3.01-8.043-3.01-11.15 0-1.82 1.76-41.54 40.91-62.24 105.32-34.75-46.14-74.37-68.6-76.19-69.62-3.781-2.11-8.553-.829-10.77 2.89-.55.92-13.53 22.89-23.13 57.9-8.87 32.3-16.36 82.27-1.72 136.91 3.09 11.53 6.6 23.01 10.46 34.3.07.27.161.534.27.79 3.05 8.91 6.32 17.69 9.77 26.26.154.527.361 1.036.62 1.52 10.48 25.81 22.57 49.69 35.3 69.47h-236.8c-4.418 0-8 3.582-8 8s3.582 8 8 8h480c4.418 0 8-3.582 8-8s-3.582-8-8-8zm-176.96-240.23c13.76-54.72 44.37-93.72 56.96-108.03 12.8 14.53 44.18 54.57 57.66 111.05l-55.13-18.38c-1.642-.55-3.418-.55-5.06 0l-55.14 18.38c.24-1.01.46-2.02.71-3.02zm-4.29 21.08 61.25-20.42 61.24 20.42c.81 5.14 1.46 10.4 1.92 15.77l-60.63-20.21c-1.642-.55-3.418-.55-5.06 0l-60.61 20.2c.45-5.26 1.07-10.52 1.89-15.76zm-102.91 82.67c-13.66-50.97-6.7-97.76 1.55-128.03 4.386-16.266 10.326-32.072 17.74-47.2 28.082 19.006 52.349 43.114 71.54 71.07-1.1 4.63-2.05 9.28-2.88 13.95l-.03.15c-1.983 11.19-3.186 22.504-3.6 33.86v.06c-.1 2.88-.16 5.75-.16 8.62 0 11.09.35 22.17 1.02 33.15l-19.78-1.19c-1.811-.101-3.604.41-5.09 1.45l-53.4 37.62c-2.49-7.78-4.793-15.617-6.91-23.51zm12.24 39.33 55-38.75 19.17 1.15c.44 4.86.947 9.687 1.52 14.48l-14.25-.85c-1.728-.108-3.444.348-4.89 1.3l-52.2 34.48c-1.487-3.9-2.937-7.837-4.35-11.81zm47.98 97.15c-13.44-19.16-26.37-43.46-37.57-70.18l52.73-34.81 14.74.88c1.88 12.36 4.19 24.4 6.93 35.97 6.62 28.01 15.22 51.19 25.2 68.14zm126.77 0h-17.83v-96c0-4.418-3.582-8-8-8s-8 3.582-8 8v96h-11.83c-16.51-22.54-29.56-64.1-36.25-112.24-.019-.37-.069-.738-.15-1.1-1.3-9.54-2.35-19.33-3.14-29.28-.001-.097-.008-.194-.02-.29-1.05-13.49-1.61-27.26-1.61-41.09 0-.75.03-1.5.04-2.25l63.96-21.32 63.98 21.33c.01.74.02 1.49.02 2.24 0 76.12-16.81 150.75-41.17 184z"/>
<path d="m80 456h-16c-4.418 0-8 3.582-8 8s3.582 8 8 8h16c4.418 0 8-3.582 8-8s-3.582-8-8-8z"/>
<path d="m112 472c4.418 0 8-3.582 8-8s-3.582-8-8-8h-8c-4.418 0-8 3.582-8 8s3.582 8 8 8z"/>
<path d="m136 480h-24c-4.418 0-8 3.582-8 8s3.582 8 8 8h24c4.418 0 8-3.582 8-8s-3.582-8-8-8z"/>
<path d="m416 464h-16c-4.418 0-8 3.582-8 8s3.582 8 8 8h16c4.418 0 8-3.582 8-8s-3.582-8-8-8z"/>
<path d="m448 472c4.418 0 8-3.582 8-8s-3.582-8-8-8h-8c-4.418 0-8 3.582-8 8s3.582 8 8 8z"/>
<path d="m472 480h-24c-4.418 0-8 3.582-8 8s3.582 8 8 8h24c4.418 0 8-3.582 8-8s-3.582-8-8-8z"/>
<path d="m376.02 488h-.01c-4.421.003-8.003 3.589-8 8.01s3.589 8.003 8.01 8 8.003-3.589 8-8.01c-.003-4.417-3.583-7.997-8-8z"/>
<path d="m160.02 480h-.01c-4.421.003-8.003 3.589-8 8.01s3.589 8.003 8.01 8 8.003-3.589 8-8.01c-.003-4.417-3.583-7.997-8-8z"/>
<path d="m248 456h-16c-4.418 0-8 3.582-8 8s3.582 8 8 8h16c4.418 0 8-3.582 8-8s-3.582-8-8-8z"/>
<path d="m280 464h-8c-4.418 0-8 3.582-8 8s3.582 8 8 8h8c4.418 0 8-3.582 8-8s-3.582-8-8-8z"/>
<path d="m208 488h-24c-4.418 0-8 3.582-8 8s3.582 8 8 8h24c4.418 0 8-3.582 8-8s-3.582-8-8-8z"/>
<path d="m232.02 480h-.01c-4.421.003-8.003 3.589-8 8.01s3.589 8.003 8.01 8 8.003-3.589 8-8.01c-.003-4.417-3.583-7.997-8-8z"/>
<path d="m344.02 456h-.01c-4.421.003-8.003 3.589-8 8.01s3.589 8.003 8.01 8 8.003-3.589 8-8.01c-.003-4.417-3.583-7.997-8-8z"/>
<path d="m32.02 456h-.01c-4.421.003-8.003 3.589-8 8.01s3.589 8.003 8.01 8 8.003-3.589 8-8.01c-.003-4.417-3.583-7.997-8-8z"/>
<path d="m104 120c22.091 0 40-17.909 40-40s-17.909-40-40-40-40 17.909-40 40c.025 22.081 17.919 39.975 40 40zm0-64c13.255 0 24 10.745 24 24s-10.745 24-24 24-24-10.745-24-24c.015-13.248 10.752-23.985 24-24z"/>
<path d="m104 32c4.418 0 8-3.582 8-8v-8c0-4.418-3.582-8-8-8s-8 3.582-8 8v8c0 4.418 3.582 8 8 8z"/>
<path d="m96 136v8c0 4.418 3.582 8 8 8s8-3.582 8-8v-8c0-4.418-3.582-8-8-8s-8 3.582-8 8z"/>
<path d="m152 80c0 4.418 3.582 8 8 8h8c4.418 0 8-3.582 8-8s-3.582-8-8-8h-8c-4.418 0-8 3.582-8 8z"/>
<path d="m40 88h8c4.418 0 8-3.582 8-8s-3.582-8-8-8h-8c-4.418 0-8 3.582-8 8s3.582 8 8 8z"/>
<path d="m143.6 48.4c2.122.003 4.158-.84 5.657-2.343l5.657-5.658c3.177-3.07 3.265-8.135.195-11.312s-8.135-3.265-11.312-.195c-.067.064-.132.13-.197.197l-5.657 5.657c-3.123 3.126-3.12 8.191.006 11.314 1.499 1.498 3.532 2.339 5.651 2.34z"/>
<path d="m58.745 113.941-5.657 5.659c-3.185 3.062-3.285 8.126-.223 11.312 3.062 3.185 8.126 3.285 11.312.223.076-.073.151-.148.224-.224l5.657-5.657c3.143-3.105 3.173-8.171.068-11.314s-8.171-3.173-11.314-.068c-.023.023-.046.046-.068.068z"/>
<path d="m137.941 113.94c-3.124 3.124-3.124 8.189 0 11.314l5.657 5.657c3.078 3.17 8.143 3.244 11.312.166 3.17-3.078 3.244-8.143.166-11.312-.054-.056-.109-.111-.165-.165l-5.657-5.658c-3.123-3.125-8.188-3.126-11.313-.002z"/>
<path d="m58.745 46.059c3.105 3.143 8.17 3.174 11.313.069s3.174-8.17.069-11.313c-.023-.023-.046-.046-.069-.069l-5.658-5.657c-3.062-3.185-8.126-3.286-11.311-.224s-3.286 8.126-.224 11.311c.073.076.148.15.223.224z"/>
<path d="m373 296c-4.418 0-8 3.582-8 8v8c0 4.418 3.582 8 8 8s8-3.582 8-8v-8c0-4.418-3.582-8-8-8z"/></g></g></svg>